<?xml version="1.0" encoding="UTF-8"?>
<svg xmlns="http://www.w3.org/2000/svg" xmlns:xlink="http://www.w3.org/1999/xlink" width="388pt" height="264pt" viewBox="0 0 388 264" version="1.1">
<g id="surface1">
<path style=" stroke:none;fill-rule:nonzero;fill:rgb(0%,45.882353%,56.078431%);fill-opacity:1;" d="M 93.3125 240.773438 L 78.335938 240.773438 C 77.808594 215.429688 76.351562 191.597656 73.964844 169.273438 L 73.832031 169.273438 L 51.03125 240.773438 L 39.628906 240.773438 L 16.964844 169.273438 L 16.832031 169.273438 C 15.152344 190.710938 14.09375 214.542969 13.652344 240.773438 L -0.00390625 240.773438 C 0.878906 208.875 3.085938 178.972656 6.621094 151.058594 L 25.183594 151.058594 L 46.789062 216.976562 L 46.921875 216.976562 L 68.660156 151.058594 L 86.417969 151.058594 C 90.308594 183.75 92.605469 213.660156 93.3125 240.773438 "/>
<path style=" stroke:none;fill-rule:nonzero;fill:rgb(0%,45.882353%,56.078431%);fill-opacity:1;" d="M 158.273438 174.582031 C 152.175781 207.761719 144.132812 231.871094 134.148438 246.910156 C 126.367188 258.5 117.84375 264.292969 108.566406 264.292969 C 106.089844 264.292969 103.039062 263.546875 99.421875 262.0625 L 99.421875 254.066406 C 101.1875 254.324219 103.265625 254.464844 105.648438 254.464844 C 109.980469 254.464844 113.46875 253.261719 116.125 250.867188 C 119.300781 247.949219 120.894531 244.671875 120.894531 241.035156 C 120.894531 238.554688 119.652344 233.460938 117.183594 225.753906 L 100.746094 174.582031 L 115.457031 174.582031 L 127.253906 212.855469 C 129.902344 221.546875 131.007812 227.609375 130.566406 231.070312 C 137.019531 213.789062 141.527344 194.960938 144.089844 174.582031 L 158.273438 174.582031 "/>
<path style=" stroke:none;fill-rule:nonzero;fill:rgb(94.901961%,56.862745%,6.666667%);fill-opacity:1;" d="M 223.875 215.90625 C 223.875 223.515625 221.085938 229.761719 215.527344 234.648438 C 209.96875 239.511719 202.496094 241.953125 193.136719 241.953125 C 184.386719 241.953125 175.902344 239.144531 167.6875 233.574219 L 171.53125 225.867188 C 178.601562 229.414062 185 231.183594 190.742188 231.183594 C 196.132812 231.183594 200.351562 229.980469 203.402344 227.605469 C 206.445312 225.210938 208.269531 221.875 208.269531 217.640625 C 208.269531 212.3125 204.566406 207.761719 197.769531 203.941406 C 191.492188 200.488281 178.949219 193.277344 178.949219 193.277344 C 172.152344 188.308594 168.746094 182.972656 168.746094 174.1875 C 168.746094 166.917969 171.289062 161.046875 176.363281 156.574219 C 181.449219 152.097656 188.011719 149.859375 196.046875 149.859375 C 204.355469 149.859375 211.90625 152.082031 218.710938 156.511719 L 215.253906 164.210938 C 209.433594 161.734375 203.691406 160.492188 198.035156 160.492188 C 193.441406 160.492188 189.902344 161.597656 187.4375 163.824219 C 184.957031 166.027344 183.421875 168.863281 183.421875 172.320312 C 183.421875 177.636719 187.207031 182.242188 194.195312 186.136719 C 200.550781 189.59375 213.402344 196.941406 213.402344 196.941406 C 220.390625 201.902344 223.875 207.191406 223.875 215.90625 "/>
<path style=" stroke:none;fill-rule:evenodd;fill:rgb(94.901961%,56.862745%,6.666667%);fill-opacity:1;" d="M 250.648438 222.824219 C 247.023438 216.976562 245.207031 207.59375 245.207031 194.652344 C 245.207031 172.0625 252.058594 160.761719 265.753906 160.761719 C 272.914062 160.761719 278.167969 163.464844 281.53125 168.863281 C 285.148438 174.714844 286.964844 184.019531 286.964844 196.777344 C 286.964844 219.550781 280.113281 230.941406 266.417969 230.941406 C 259.261719 230.941406 254.003906 228.238281 250.648438 222.828125 M 303.929688 242.9375 L 287.484375 234.804688 C 288.949219 233.601562 290.339844 232.300781 291.597656 230.796875 C 298.582031 222.566406 302.078125 210.382812 302.078125 194.253906 C 302.078125 164.574219 290.457031 149.726562 267.214844 149.726562 C 255.816406 149.726562 246.933594 153.492188 240.570312 161.027344 C 233.585938 169.269531 230.097656 181.40625 230.097656 197.445312 C 230.097656 213.214844 233.1875 224.78125 239.375 232.132812 C 245.011719 238.773438 253.535156 242.101562 264.945312 242.101562 C 269.203125 242.101562 273.109375 241.574219 276.660156 240.523438 L 298.074219 253.019531 L 303.914062 242.9375 "/>
<path style=" stroke:none;fill-rule:nonzero;fill:rgb(94.901961%,56.862745%,6.666667%);fill-opacity:1;" d="M 357.617188 240.773438 L 315.070312 240.773438 L 315.070312 151.058594 L 329.386719 151.058594 L 329.386719 229.738281 L 357.617188 229.738281 L 357.617188 240.773438 "/>
<path style=" stroke:none;fill-rule:nonzero;fill:rgb(94.901961%,56.862745%,6.666667%);fill-opacity:1;" d="M 367.828125 240.765625 L 370.199219 240.765625 L 370.199219 231.636719 L 373.304688 231.636719 L 373.304688 229.773438 L 364.601562 229.773438 L 364.601562 231.636719 L 367.828125 231.636719 Z M 385.878906 240.765625 L 388.117188 240.765625 L 388.117188 229.773438 L 384.753906 229.773438 L 382.015625 237.265625 L 379.035156 229.773438 L 375.792969 229.773438 L 375.792969 240.765625 L 377.910156 240.765625 L 377.910156 232.398438 L 378.03125 232.398438 L 381.152344 240.765625 L 382.761719 240.765625 L 385.878906 232.398438 L 385.878906 240.765625 "/>
<path style=" stroke:none;fill-rule:evenodd;fill:rgb(0%,45.882353%,56.078431%);fill-opacity:1;" d="M 375.589844 121.007812 C 366.9375 120.789062 360.234375 121.65625 354.613281 124.042969 C 352.992188 124.691406 350.402344 124.691406 350.179688 126.753906 C 351.050781 127.617188 351.15625 129.027344 351.917969 130.222656 C 353.210938 132.390625 355.476562 135.3125 357.535156 136.835938 C 359.804688 138.570312 362.074219 140.296875 364.457031 141.816406 C 368.671875 144.429688 373.429688 145.941406 377.53125 148.542969 C 379.917969 150.058594 382.289062 152.007812 384.671875 153.636719 C 385.859375 154.503906 386.609375 155.914062 388.128906 156.453125 L 388.128906 156.125 C 387.367188 155.152344 387.15625 153.742188 386.402344 152.652344 C 385.324219 151.574219 384.238281 150.59375 383.15625 149.515625 C 380.019531 145.289062 376.121094 141.605469 371.917969 138.570312 C 368.453125 136.179688 360.882812 132.925781 359.480469 128.929688 C 359.480469 128.929688 359.367188 128.8125 359.261719 128.707031 C 361.640625 128.488281 364.457031 127.617188 366.726562 126.960938 C 370.394531 125.988281 373.746094 126.207031 377.53125 125.234375 C 379.265625 124.796875 380.992188 124.253906 382.730469 123.71875 L 382.730469 122.738281 C 380.773438 120.789062 379.375 118.183594 377.320312 116.34375 C 371.8125 111.574219 365.75 106.917969 359.480469 103.011719 C 356.125 100.839844 351.800781 99.4375 348.234375 97.59375 C 346.941406 96.941406 344.78125 96.621094 344.023438 95.527344 C 342.074219 93.144531 340.988281 90.007812 339.585938 87.183594 C 336.453125 81.226562 333.421875 74.617188 330.722656 68.320312 C 328.777344 64.097656 327.589844 59.871094 325.210938 55.964844 C 314.070312 37.535156 301.964844 26.375 283.371094 15.425781 C 279.371094 13.148438 274.613281 12.171875 269.535156 10.980469 C 266.828125 10.867188 264.128906 10.65625 261.425781 10.546875 C 259.695312 9.785156 257.960938 7.726562 256.453125 6.75 C 250.285156 2.851562 234.402344 -5.601562 229.859375 5.558594 C 226.9375 12.609375 234.179688 19.542969 236.667969 23.121094 C 238.503906 25.613281 240.886719 28.4375 242.179688 31.25 C 242.9375 33.09375 243.152344 35.046875 243.914062 36.996094 C 245.640625 41.765625 247.261719 47.078125 249.535156 51.523438 C 250.71875 53.800781 252.015625 56.1875 253.527344 58.238281 C 254.402344 59.4375 255.910156 59.972656 256.238281 61.929688 C 254.726562 64.097656 254.609375 67.347656 253.746094 70.058594 C 249.855469 82.308594 251.367188 97.484375 256.882812 106.480469 C 258.609375 109.1875 262.722656 115.152344 268.238281 112.871094 C 273.101562 110.921875 272.019531 104.746094 273.425781 99.328125 C 273.746094 98.019531 273.53125 97.160156 274.175781 96.292969 L 274.175781 96.511719 C 275.691406 99.542969 277.207031 102.460938 278.613281 105.507812 C 281.96875 110.8125 287.800781 116.34375 292.671875 120.023438 C 295.257812 121.984375 297.3125 125.339844 300.554688 126.535156 L 300.554688 126.207031 L 300.34375 126.207031 C 299.691406 125.234375 298.722656 124.796875 297.855469 124.042969 C 295.910156 122.089844 293.753906 119.703125 292.234375 117.539062 C 287.695312 111.46875 283.691406 104.746094 280.128906 97.808594 C 278.394531 94.441406 276.882812 90.757812 275.476562 87.398438 C 274.832031 86.105469 274.832031 84.148438 273.746094 83.5 C 272.121094 85.882812 269.75 87.945312 268.5625 90.863281 C 266.507812 95.527344 266.292969 101.273438 265.527344 107.238281 C 265.097656 107.351562 265.316406 107.238281 265.097656 107.453125 C 261.644531 106.585938 260.453125 103.007812 259.152344 99.984375 C 255.910156 92.277344 255.367188 79.921875 258.179688 71.03125 C 258.933594 68.757812 262.1875 61.605469 260.882812 59.4375 C 260.230469 57.367188 258.070312 56.1875 256.882812 54.554688 C 255.480469 52.496094 253.957031 49.898438 252.996094 47.617188 C 250.398438 41.550781 249.09375 34.828125 246.292969 28.757812 C 244.996094 25.933594 242.71875 23.007812 240.886719 20.410156 C 238.828125 17.484375 236.5625 15.425781 234.9375 11.960938 C 234.402344 10.765625 233.644531 8.8125 234.503906 7.515625 C 234.71875 6.648438 235.15625 6.320312 236.023438 6.101562 C 237.421875 4.910156 241.425781 6.425781 242.828125 7.074219 C 246.832031 8.695312 250.183594 10.222656 253.527344 12.496094 C 255.042969 13.582031 256.667969 15.640625 258.609375 16.1875 L 260.882812 16.1875 C 264.34375 16.941406 268.238281 16.398438 271.480469 17.378906 C 277.207031 19.21875 282.394531 21.929688 287.046875 24.855469 C 301.207031 33.855469 312.882812 46.648438 320.769531 61.929688 C 322.070312 64.417969 322.617188 66.699219 323.804688 69.292969 C 326.074219 74.617188 328.886719 80.035156 331.152344 85.234375 C 333.421875 90.328125 335.589844 95.527344 338.835938 99.761719 C 340.453125 102.035156 346.941406 103.226562 349.859375 104.421875 C 352.019531 105.390625 355.375 106.261719 357.320312 107.453125 C 360.996094 109.722656 364.664062 112.328125 368.128906 114.828125 C 369.855469 116.128906 375.261719 118.835938 375.589844 121.007812 "/>
<path style=" stroke:none;fill-rule:evenodd;fill:rgb(0%,45.882353%,56.078431%);fill-opacity:1;" d="M 265.3125 26.796875 C 263.480469 26.796875 262.1875 27.019531 260.882812 27.339844 L 260.882812 27.558594 L 261.09375 27.558594 C 261.964844 29.289062 263.480469 30.492188 264.550781 32.007812 C 265.421875 33.742188 266.179688 35.46875 267.042969 37.207031 C 267.152344 37.097656 267.253906 36.984375 267.253906 36.984375 C 268.777344 35.90625 269.535156 34.175781 269.535156 31.570312 C 268.878906 30.804688 268.777344 30.050781 268.234375 29.289062 C 267.585938 28.207031 266.179688 27.664062 265.3125 26.796875 "/>
</g>
</svg>
