<svg height="188" viewBox="-14.691 -14.656 188 188" width="188" xmlns="http://www.w3.org/2000/svg"><g fill="#ffb400"><path d="M144.73 51.788c-12.773 0-23.13-10.356-23.13-23.13 0-5.044 1.62-9.707 4.36-13.508C112.88 5.61 96.74-.013 79.2-.013 35.11-.013.062 35.477.062 79.564.062 123.65 35.11 158.7 79.2 158.7c44.086 0 79.355-35.05 79.355-79.136 0-10.367-1.95-20.258-5.507-29.324-2.582.996-5.384 1.548-8.318 1.548zM79.2 123.43c-24.03 0-43.868-19.84-43.868-43.865 0-24.25 19.84-44.308 43.867-44.308 24.24 0 44.08 20.06 44.08 44.308 0 24.026-19.84 43.867-44.09 43.867v-.002z"/><path d="M144.692.168c-15.828 0-28.41 12.74-28.41 28.568s12.582 28.41 28.41 28.41 28.49-12.582 28.49-28.41S160.52.168 144.692.168zm-.014 49.575c-11.49 0-20.98-9.488-20.98-20.98 0-11.595 9.49-21.188 20.98-21.188 11.597 0 21.085 9.593 21.085 21.19 0 11.49-9.488 20.978-21.085 20.978z"/></g></svg>